<svg width="449" height="449" viewBox="0 0 449 449" fill="none" xmlns="http://www.w3.org/2000/svg">
<path d="M449 223.586L429.397 260.413L345.271 215.633L340.099 377.711L298.397 376.381L304.638 180.81L335.291 163.06L449 223.586Z" fill="currentColor"/>
<path fill-rule="evenodd" clip-rule="evenodd" d="M268.19 304.638L285.94 335.291L225.414 449L188.587 429.397L233.364 345.271L71.2894 340.099L72.6186 298.397L268.19 304.638Z" fill="currentColor"/>
<path fill-rule="evenodd" clip-rule="evenodd" d="M144.362 268.19L150.603 72.6186L108.901 71.2894L103.727 233.364L19.603 188.587L0 225.414L113.709 285.94L144.362 268.19Z" fill="currentColor"/>
<path fill-rule="evenodd" clip-rule="evenodd" d="M260.413 19.603L215.633 103.727L377.711 108.901L376.381 150.603L180.81 144.362L163.06 113.709L223.586 0L260.413 19.603Z" fill="currentColor"/>
</svg>
